<svg width="92" height="108" viewBox="0 0 92 108" fill="none" xmlns="http://www.w3.org/2000/svg">
<path d="M34.045 19.4543C24.89 23.1736 18.0238 30.8981 15.449 40.3391C11.4437 40.9113 8.58276 44.3444 8.58276 48.6358C8.58276 52.9272 11.4437 56.3603 15.449 56.9325C19.1682 70.3788 31.1841 80.106 45.7748 80.106C60.3655 80.106 72.3814 70.3788 76.1006 56.9325C80.1059 56.3603 82.9669 52.9272 82.9669 48.6358C82.9669 44.3444 80.1059 40.9113 76.1006 40.3391C73.5258 30.8981 66.6596 23.1736 57.5046 19.4543" fill="#FFF5ED"/>
<path d="M34.045 19.4543C24.89 23.1736 18.0238 30.8981 15.449 40.3391C11.4437 40.9113 8.58276 44.3444 8.58276 48.6358C8.58276 52.9272 11.4437 56.3603 15.449 56.9325C19.1682 70.3788 31.1841 80.106 45.7748 80.106C60.3655 80.106 72.3814 70.3788 76.1007 56.9325C80.1059 56.3603 82.9669 52.9272 82.9669 48.6358C82.9669 44.3444 80.1059 40.9113 76.1007 40.3391C73.5258 30.8981 66.6596 23.1736 57.5046 19.4543" stroke="black" stroke-width="2" stroke-miterlimit="10" stroke-linecap="round" stroke-linejoin="round"/>
<path d="M45.7749 71.5232C50.515 71.5232 54.3576 67.6806 54.3576 62.9404C54.3576 58.2003 50.515 54.3577 45.7749 54.3577C41.0347 54.3577 37.1921 58.2003 37.1921 62.9404C37.1921 67.6806 41.0347 71.5232 45.7749 71.5232Z" stroke="black" stroke-width="2" stroke-miterlimit="10" stroke-linecap="round" stroke-linejoin="round"/>
<path d="M37.1921 45.7749V51.4968" stroke="black" stroke-width="2" stroke-miterlimit="10" stroke-linecap="round" stroke-linejoin="round"/>
<path d="M54.3576 45.7749V51.4968" stroke="black" stroke-width="2" stroke-miterlimit="10" stroke-linecap="round" stroke-linejoin="round"/>
<path d="M51.2106 9.44116C57.7907 14.8769 60.0795 24.318 56.0742 32.0425C52.355 39.1948 43.4861 41.7696 36.6199 38.0504C30.898 35.1895 28.8954 28.0372 31.7563 22.3153C34.045 17.7379 39.7669 16.0213 44.3444 18.31C48.0636 20.3127 49.494 24.6041 47.4914 28.3233" stroke="black" stroke-width="2" stroke-miterlimit="10" stroke-linecap="round" stroke-linejoin="round"/>
<path d="M15.5643 89.2785V103.499H14.7903V89.2785H15.5643ZM30.8388 103.805C29.4468 103.805 28.1928 103.481 27.0768 102.833C25.9608 102.197 25.0848 101.315 24.4488 100.187C23.8248 99.0585 23.5128 97.7925 23.5128 96.3885C23.5128 94.9845 23.8248 93.7185 24.4488 92.5905C25.0848 91.4625 25.9548 90.5805 27.0588 89.9445C28.1748 89.2965 29.4288 88.9725 30.8208 88.9725C32.5368 88.9725 33.9888 89.4165 35.1768 90.3045C36.3768 91.1805 37.2048 92.3685 37.6608 93.8685H36.8508C36.4308 92.5725 35.6988 91.5525 34.6548 90.8085C33.6108 90.0645 32.3328 89.6925 30.8208 89.6925C29.5728 89.6925 28.4508 89.9805 27.4548 90.5565C26.4588 91.1205 25.6788 91.9125 25.1148 92.9325C24.5628 93.9525 24.2868 95.1045 24.2868 96.3885C24.2868 97.6725 24.5688 98.8245 25.1328 99.8445C25.6968 100.853 26.4768 101.645 27.4728 102.221C28.4688 102.797 29.5908 103.085 30.8388 103.085C32.3988 103.085 33.7188 102.689 34.7988 101.897C35.8908 101.105 36.6228 100.043 36.9948 98.7105H37.8048C37.5408 99.7305 37.0848 100.625 36.4368 101.393C35.8008 102.161 35.0028 102.755 34.0428 103.175C33.0828 103.595 32.0148 103.805 30.8388 103.805ZM49.2511 99.3585H41.3311L39.5671 103.499H38.7211L44.8231 89.2785H45.7411L51.8431 103.499H51.0151L49.2511 99.3585ZM48.9271 98.6385L45.2911 90.1245L41.6551 98.6385H48.9271ZM64.2642 103.499L60.5742 97.9185C60.1302 97.9905 59.6442 98.0265 59.1162 98.0265H54.9042V103.499H54.1302V89.2785H59.1162C60.2922 89.2785 61.3062 89.4585 62.1582 89.8185C63.0222 90.1785 63.6762 90.6885 64.1202 91.3485C64.5762 91.9965 64.8042 92.7645 64.8042 93.6525C64.8042 94.6725 64.5042 95.5425 63.9042 96.2625C63.3162 96.9705 62.4702 97.4685 61.3662 97.7565L65.1822 103.499H64.2642ZM58.9722 97.3065C60.5562 97.3065 61.7922 96.9945 62.6802 96.3705C63.5802 95.7345 64.0302 94.8285 64.0302 93.6525C64.0302 92.4765 63.5802 91.5765 62.6802 90.9525C61.7922 90.3165 60.5562 89.9985 58.9722 89.9985H54.9042V97.3065H58.9722ZM67.6126 89.2785H77.3146V89.9985H68.3866V95.8845H76.6846V96.6045H68.3866V102.779H77.4766V103.499H67.6126V89.2785Z" fill="black"/>
</svg>
