<svg width="92" height="92" viewBox="0 0 92 92" fill="none" xmlns="http://www.w3.org/2000/svg">
<path d="M34.045 19.4543C24.8901 23.1736 18.0238 30.8981 15.449 40.3391C11.4437 40.9113 8.58278 44.3444 8.58278 48.6358C8.58278 52.9272 11.4437 56.3603 15.449 56.9325C19.1682 70.3788 31.1841 80.106 45.7748 80.106C60.3656 80.106 72.3815 70.3788 76.1007 56.9325C80.106 56.3603 82.9669 52.9272 82.9669 48.6358C82.9669 44.3444 80.106 40.9113 76.1007 40.3391C73.5258 30.8981 66.6596 23.1736 57.5046 19.4543" fill="#FFF5ED"/>
<path d="M34.045 19.4543C24.8901 23.1736 18.0238 30.8981 15.449 40.3391C11.4437 40.9113 8.58278 44.3444 8.58278 48.6358C8.58278 52.9272 11.4437 56.3603 15.449 56.9325C19.1682 70.3788 31.1841 80.106 45.7748 80.106C60.3656 80.106 72.3815 70.3788 76.1007 56.9325C80.106 56.3603 82.9669 52.9272 82.9669 48.6358C82.9669 44.3444 80.106 40.9113 76.1007 40.3391C73.5258 30.8981 66.6596 23.1736 57.5046 19.4543" stroke="black" stroke-width="2" stroke-miterlimit="10" stroke-linecap="round" stroke-linejoin="round"/>
<path d="M45.7748 71.5232C50.515 71.5232 54.3576 67.6806 54.3576 62.9404C54.3576 58.2003 50.515 54.3577 45.7748 54.3577C41.0347 54.3577 37.192 58.2003 37.192 62.9404C37.192 67.6806 41.0347 71.5232 45.7748 71.5232Z" stroke="black" stroke-width="2" stroke-miterlimit="10" stroke-linecap="round" stroke-linejoin="round"/>
<path d="M37.192 45.7749V51.4968" stroke="black" stroke-width="2" stroke-miterlimit="10" stroke-linecap="round" stroke-linejoin="round"/>
<path d="M54.3576 45.7749V51.4968" stroke="black" stroke-width="2" stroke-miterlimit="10" stroke-linecap="round" stroke-linejoin="round"/>
<path d="M51.2106 9.44116C57.7907 14.8769 60.0795 24.318 56.0742 32.0425C52.355 39.1948 43.4861 41.7696 36.6199 38.0504C30.898 35.1895 28.8954 28.0372 31.7563 22.3153C34.045 17.7379 39.7669 16.0213 44.3444 18.31C48.0636 20.3127 49.494 24.6041 47.4914 28.3233" stroke="black" stroke-width="2" stroke-miterlimit="10" stroke-linecap="round" stroke-linejoin="round"/>
</svg>
